<?xml version="1.0" encoding="utf-8"?>
<!-- Generator: Adobe Illustrator 24.1.1, SVG Export Plug-In . SVG Version: 6.00 Build 0)  -->
<svg version="1.1" id="Layer_1" xmlns="http://www.w3.org/2000/svg" xmlns:xlink="http://www.w3.org/1999/xlink" x="0px" y="0px"
	 viewBox="0 0 512 512" style="enable-background:new 0 0 512 512;" xml:space="preserve">
<g>
	<path fill="lightgray"
			d="M448,0.1H64C28.8,0.1,0,28.9,0,64v82.3c0,0,82.2,47.8,87.4,50.7c6.6,3.8,14.8,3.8,21.4,0c5.6-3.1,171.1-98.3,173.6-99.7
		c5.9-3.4,12.3-2.2,15.9-0.1c3.5,2,13,7.4,17.9,10.2c5,2.9,4.7,10.7,0.3,13.3L109.4,239.9c-7.4,4.2-14.7,4.3-22.4,0
		c-12.8-7.2-65.7-38-87-50.4v43.1l87.4,50.7c6.6,3.8,14.8,3.8,21.4,0c5.6-3.1,171.1-98.3,173.5-99.7c5.9-3.4,12.3-2.2,15.9-0.1
		c3.5,2.1,13,7.4,17.9,10.2c5,2.8,4.7,10.7,0.3,13.2c-4.4,2.6-198.1,114-207.2,119.2c-7.4,4.2-14.7,4.3-22.4,0
		c-12.8-7.2-65.7-38-87-50.4v43.1l87.4,50.7c6.6,3.9,14.8,3.8,21.4,0c5.6-3.1,171.1-98.2,173.5-99.8c5.9-3.4,12.3-2.2,15.9-0.1
		c3.5,2.1,13,7.4,17.9,10.2c5,2.8,4.7,10.7,0.3,13.2L109.4,412.4c-7.4,4.2-14.7,4.3-22.4,0.1c-12.8-7.3-65.7-38.1-87-50.5v86
		c0,35.1,28.8,64,64,64h384c35.2,0,64-28.8,64-64V64C512,28.9,483.2,0,448,0.1L448,0.1z"/>
</g>
</svg>
